<svg version="1.2" xmlns="http://www.w3.org/2000/svg" viewBox="0 0 700 300" width="700" height="300">
	<title>New Project</title>
	<style>
		.s0 { fill: #8e92fd } 
		.s1 { fill: #dfdfdf } 
	</style>
	<path id="DESIGN STUDIO" class="s0" aria-label="DESIGN STUDIO"  d="m437.5 197.2h-2v13.5h2q3.5 0 5.4-1.8 1.8-1.7 1.8-5 0-3.3-1.8-5-1.8-1.7-5.4-1.7zm-7.7 17.8v-22.1h6q5.1 0 7.5 0.7 2.5 0.7 4.3 2.4 1.5 1.5 2.3 3.5 0.7 1.9 0.7 4.4 0 2.5-0.7 4.5-0.8 1.9-2.3 3.4-1.8 1.8-4.3 2.5-2.5 0.7-7.5 0.7zm25 0v-22.1h15.4v4.3h-9.7v4.1h9.1v4.3h-9.1v5.1h10v4.3zm36.4-21.4v4.6q-1.8-0.8-3.5-1.2-1.7-0.4-3.3-0.4-2 0-3 0.6-1 0.5-1 1.7 0 0.9 0.7 1.4 0.6 0.5 2.4 0.8l2.4 0.5q3.7 0.8 5.2 2.3 1.6 1.5 1.6 4.3 0 3.7-2.2 5.5-2.1 1.7-6.6 1.7-2.1 0-4.2-0.4-2.2-0.4-4.3-1.2v-4.8q2.1 1.2 4.1 1.7 2 0.6 3.8 0.6 1.9 0 2.9-0.6 1-0.7 1-1.8 0-1-0.7-1.6-0.6-0.6-2.7-1l-2.2-0.5q-3.3-0.7-4.8-2.3-1.6-1.5-1.6-4.2 0-3.3 2.2-5.1 2.1-1.7 6.1-1.7 1.8 0 3.8 0.2 1.9 0.3 3.9 0.9zm6.6 21.4v-22.1h5.8v22.1zm30.9-12.3v10.7q-2.2 1-4.5 1.5-2.3 0.5-4.7 0.5-5.6 0-8.8-3.1-3.2-3.1-3.2-8.3 0-5.4 3.3-8.5 3.3-3 9-3 2.2 0 4.2 0.4 2 0.4 3.8 1.2v4.6q-1.8-1.1-3.7-1.6-1.8-0.5-3.6-0.5-3.4 0-5.3 1.9-1.8 1.9-1.8 5.5 0 3.5 1.8 5.4 1.7 1.9 5 1.9 0.9 0 1.7-0.1 0.7-0.1 1.3-0.4v-4.3h-3.4v-3.8zm5.1 12.3v-22.1h6.3l8.1 15.1v-15.1h5.4v22.1h-6.4l-8-15.2v15.2zm51.4-21.4v4.6q-1.9-0.8-3.6-1.2-1.7-0.4-3.3-0.4-2 0-3 0.6-1 0.5-1 1.7 0 0.9 0.7 1.4 0.7 0.5 2.4 0.8l2.4 0.5q3.7 0.8 5.3 2.3 1.5 1.5 1.5 4.3 0 3.7-2.2 5.5-2.1 1.7-6.6 1.7-2.1 0-4.2-0.4-2.1-0.4-4.2-1.2v-4.8q2.1 1.2 4 1.7 2 0.6 3.9 0.6 1.8 0 2.8-0.6 1-0.7 1-1.8 0-1-0.7-1.6-0.6-0.6-2.6-1l-2.3-0.5q-3.3-0.7-4.8-2.3-1.5-1.5-1.5-4.2 0-3.3 2.1-5.1 2.1-1.7 6.1-1.7 1.9 0 3.8 0.2 1.9 0.3 4 0.9zm3.9 3.6v-4.3h20.4v4.3h-7.3v17.8h-5.7v-17.8zm23.6 8.9v-13.2h5.7v13.2q0 2.8 0.9 4 0.9 1.1 3 1.1 2 0 2.9-1.1 0.9-1.2 0.9-4v-13.2h5.7v13.2q0 4.7-2.4 7-2.3 2.3-7.1 2.3-4.9 0-7.2-2.3-2.4-2.3-2.4-7zm32.8-8.9h-2.1v13.5h2.1q3.5 0 5.3-1.8 1.9-1.7 1.9-5 0-3.3-1.9-5-1.8-1.7-5.3-1.7zm-7.8 17.8v-22.1h6q5.1 0 7.5 0.7 2.5 0.7 4.3 2.4 1.5 1.5 2.3 3.5 0.8 1.9 0.8 4.4 0 2.5-0.8 4.5-0.8 1.9-2.3 3.4-1.8 1.8-4.3 2.5-2.5 0.7-7.5 0.7zm25 0v-22.1h5.8v22.1zm21.1-18.4q-2.6 0-4.1 1.9-1.4 2-1.4 5.5 0 3.4 1.4 5.4 1.5 1.9 4.1 1.9 2.6 0 4-1.9 1.5-2 1.5-5.4 0-3.5-1.5-5.5-1.4-1.9-4-1.9zm0-4.1q5.3 0 8.3 3 3.1 3.1 3.1 8.5 0 5.3-3.1 8.4-3 3-8.3 3-5.4 0-8.4-3-3-3.1-3-8.4 0-5.4 3-8.5 3-3 8.4-3z"/>
	<path id="&lt;Compound Path&gt;" fill-rule="evenodd" class="s1" d="m168.8 213.2c-2.2 15-14 26.8-29 29-33.9 5.1-68.5 5.1-102.5 0-14.9-2.2-26.7-14-29-29-5-33.9-5-68.5 0-102.5 2.3-14.9 14.1-26.7 29-29 34-5 68.6-5 102.5 0 15 2.3 26.8 14.1 29 29 5.1 34 5.1 68.6 0 102.5zm-18.5-3.5c0-10.8-5.2-20.4-13.2-26.4 8.3-8.2 13.4-19.7 13.2-32.2-0.2-24.6-20.7-44.3-45.3-44.3h-65.7c-0.9 0-1.7 0.8-1.7 1.8v109.2c0 1 0.8 1.8 1.7 1.8h16.2c1 0 1.8-0.8 1.8-1.8v-91.3h48.3c13.9 0 25.2 11.5 25 25.5-0.2 13.7-11.7 24.6-25.4 24.6h-15.3c-0.7 0-1.4 0.5-1.7 1.2l-5.8 16.1c-0.4 1.2 0.4 2.4 1.6 2.4h33.2c7.4 0 13.4 6 13.4 13.4v8.1c0 1 0.8 1.8 1.8 1.8h16.2c0.9 0 1.7-0.8 1.7-1.8z"/>
	<path id="&lt;Path&gt;" class="s1" d="m251.4 169.6v3.7c0 0.4-0.4 0.8-0.8 0.8h-7.4c-0.4 0-0.8-0.4-0.8-0.8v-3.7c0-3.3-2.7-6.1-6.1-6.1h-15c-0.6 0-0.9-0.5-0.8-1.1l2.7-7.3c0.1-0.3 0.4-0.5 0.8-0.5h6.9c6.2 0 11.4-4.9 11.5-11.2 0.1-6.3-5-11.5-11.3-11.5h-21.9v41.4c0 0.4-0.4 0.8-0.8 0.8h-7.4c-0.4 0-0.8-0.4-0.8-0.8v-49.5c0-0.5 0.4-0.8 0.8-0.8h29.8c11.2 0 20.4 8.9 20.6 20 0 5.7-2.3 10.9-6 14.6 3.6 2.8 6 7.1 6 12z"/>
	<path id="&lt;Path&gt;" class="s1" d="m307.7 138.8v19.4c0 4.9-2.2 9.3-5.7 12.2-2.8 2.3-6.3 3.7-10.2 3.7h-20.2c-8.3 0-15-6.8-15-15 0-8.3 6.7-15 15-15h15.1c0.5 0 0.9 0.5 0.7 1l-2.7 7.4c-0.1 0.3-0.4 0.5-0.7 0.5h-12.3c-3.3 0-6.1 2.6-6.2 5.9-0.1 3.4 2.7 6.2 6.1 6.2h20.2c3.9 0 7-3.1 7-6.9v-19.4c0-3.8-3.1-6.9-7-6.9h-25.3c-0.6 0-1-0.5-0.8-1.1l2.7-7.3c0.1-0.3 0.4-0.5 0.7-0.5h22.7c8.8 0 15.9 7.1 15.9 15.8z"/>
	<path id="&lt;Path&gt;" class="s1" d="m363.3 159.2c0 8.3-6.9 14.9-15.2 14.9h-30.4c-0.5 0-0.9-0.5-0.7-1.1l2.7-7.4c0.1-0.3 0.4-0.5 0.7-0.5h27.8c3.2 0 6-2.6 6.1-5.8 0.1-3.5-2.6-6.3-6-6.3h-20.2c-8.3 0-15.1-6.6-15.2-14.9-0.1-8.3 6.7-15.2 15-15.2h25.4c0.5 0 0.9 0.6 0.7 1.1l-2.7 7.4c-0.1 0.3-0.4 0.5-0.7 0.5h-22.7c-3.3 0-6 2.8-6 6.1 0 3.3 2.7 6 6 6h20.4c8.3 0 15.1 6.8 15 15.2z"/>
	<path id="&lt;Path&gt;" class="s1" d="m379.7 174.1h-7.3c-0.4 0-0.8-0.4-0.8-0.8v-34c0-8.9 7.1-16.2 16-16.3 9-0.1 16.3 7.2 16.3 16.1v33.5c0 0.4-0.4 0.7-0.8 0.7h-7.4c-0.4 0-0.8-0.3-0.8-0.7v-33.3c0-4.1-3.2-7.5-7.3-7.4-3.9 0.1-7.1 3.3-7.1 7.2v34.2c0 0.4-0.3 0.8-0.8 0.8z"/>
	<path id="&lt;Path&gt;" class="s1" d="m403.1 174.1h-7.4c-0.4 0-0.8-0.4-0.8-0.8v-34c0-8.9 7.1-16.2 16-16.3 9-0.1 16.3 7.2 16.3 16.1v33.5c0 0.4-0.3 0.7-0.8 0.7h-7.3c-0.5 0-0.8-0.3-0.8-0.7v-33.3c0-4.1-3.3-7.5-7.3-7.4-4 0.1-7.1 3.3-7.1 7.2v34.2c0 0.4-0.4 0.8-0.8 0.8z"/>
	<path id="&lt;Path&gt;" class="s1" d="m380.5 137.7v11.6h-8.9v-11.6c0-3.2-2.6-5.8-5.7-5.8h-3.7c-0.4 0-0.7-0.4-0.5-0.8l2.7-7.6c0.2-0.3 0.5-0.5 0.8-0.5h0.7c4.1 0 7.9 1.7 10.6 4.6 2.5 2.6 4 6.2 4 10.1z"/>
	<path id="&lt;Path&gt;" class="s1" d="m607.1 173.7h-7.3c-0.5 0-0.8-0.4-0.8-0.8v-34c0-8.8 7.1-16.2 15.9-16.3 9-0.1 16.3 7.2 16.3 16.1v33.5c0 0.4-0.3 0.8-0.8 0.8h-7.3c-0.4 0-0.8-0.4-0.8-0.8v-33.3c0-4.1-3.3-7.4-7.3-7.4-3.9 0.1-7.1 3.3-7.1 7.2v34.2c0 0.4-0.4 0.8-0.8 0.8z"/>
	<path id="&lt;Path&gt;" class="s1" d="m630.4 173.7h-7.3c-0.4 0-0.8-0.4-0.8-0.8v-34c0-8.8 7.1-16.2 16-16.3 8.9-0.1 16.3 7.2 16.3 16.1v33.5c0 0.4-0.4 0.8-0.8 0.8h-7.4c-0.4 0-0.8-0.4-0.8-0.8v-33.3c0-4.1-3.3-7.4-7.3-7.4-3.9 0.1-7.1 3.3-7.1 7.2v34.2c0 0.4-0.3 0.8-0.8 0.8z"/>
	<path id="&lt;Path&gt;" class="s1" d="m607.9 148.9h-8.9v-11.6c0-3.2-2.6-5.8-5.8-5.8h-3.4c-0.5 0-0.9-0.5-0.8-1l2.1-7.3c0.1-0.4 0.5-0.6 0.8-0.6h1.3c8.1 0 14.7 6.6 14.7 14.7z"/>
	<path id="&lt;Path&gt;" class="s1" d="m477.6 123.6l-2.7 7.4c-0.1 0.3-0.4 0.5-0.7 0.5h-43.5c-0.3 0-0.6-0.2-0.8-0.5l-2.6-7.3c-0.2-0.6 0.2-1.1 0.7-1.1h48.9c0.6 0 0.9 0.5 0.7 1z"/>
	<path id="&lt;Path&gt;" class="s1" d="m456.1 173.3h-7.4c-0.4 0-0.8-0.3-0.8-0.8v-49.9h9v49.9c0 0.5-0.4 0.8-0.8 0.8z"/>
	<path id="&lt;Path&gt;" class="s1" d="m306.7 173.5l-7.9-5.2v-19.8h8.9v24.4c0 0.5-0.6 0.8-1 0.6z"/>
	<path id="&lt;Path&gt;" class="s1" d="m585.1 138.4v19.5c0 4.8-2.2 9.2-5.7 12.1-2.8 2.3-6.3 3.7-10.1 3.7h-20.3c-8.3 0-15-6.7-15-15 0-8.3 6.7-15 15-15h15.1c0.5 0 0.9 0.5 0.7 1.1l-2.6 7.3c-0.2 0.3-0.5 0.5-0.8 0.5h-12.3c-3.3 0-6.1 2.6-6.2 5.9-0.1 3.4 2.7 6.3 6.1 6.3h20.3c3.8 0 6.9-3.1 6.9-6.9v-19.5c0-3.8-3.1-6.9-7-6.9h-25.3c-0.6 0-1-0.5-0.8-1l2.7-7.4c0.1-0.3 0.4-0.5 0.7-0.5h22.7c8.8 0 15.9 7.1 15.9 15.8z"/>
	<path id="&lt;Path&gt;" class="s1" d="m583.9 172.9l-7.7-4.9v-19.9h8.9v24.1c0 0.7-0.7 1.1-1.2 0.7z"/>
	<path id="&lt;Path&gt;" class="s1" d="m481.3 157.9v-19.5c0-4.8 2.2-9.2 5.7-12.1 2.8-2.3 6.3-3.7 10.2-3.7h20.2c8.3 0 15 6.7 15 15 0 8.3-6.7 15-15 15h-15.1c-0.5 0-0.9-0.5-0.7-1.1l2.6-7.3c0.2-0.3 0.5-0.5 0.8-0.5h12.3c3.3 0 6.1-2.6 6.2-5.9 0.1-3.4-2.7-6.3-6.1-6.3h-20.2c-3.9 0-7 3.1-7 6.9v19.5c0 3.8 3.1 6.9 7 6.9h25.3c0.6 0 1 0.5 0.8 1l-2.7 7.4c-0.1 0.3-0.4 0.5-0.7 0.5h-22.7c-8.8 0-15.9-7.1-15.9-15.8z"/>
</svg>